PathFileType	4	(X/Y/Z)	./resultDataOpenSim/trcMotMarkerGrf/sub09/qtm-13-06.trc
DataRate	CameraRate	NumFrames	NumMarkers	Units	OrigDataRate	OrigDataStartFrame	OrigNumFrames
250.000000	250.000000	9	24	m	250.000000	240	478
Frame#	Time	L.Toe.Tip			R.Toe.Tip			L.Ankle.Lat			R.Ankle.Lat			L.Ankle.Med			R.Ankle.Med			L.Heel			R.Heel			L.Knee.Lat			R.Knee.Lat			L.Knee.Med			R.Knee.Med			L.Thigh.Upper			R.Thigh.Upper			L.ASIS			R.ASIS			V.Sacral			L.Acromium			R.Acromium			C7			L.Elbow			R.Elbow			L.Wrist.Lat			R.Wrist.Lat
		X1	Y1	Z1	X2	Y2	Z2	X3	Y3	Z3	X4	Y4	Z4	X5	Y5	Z5	X6	Y6	Z6	X7	Y7	Z7	X8	Y8	Z8	X9	Y9	Z9	X10	Y10	Z10	X11	Y11	Z11	X12	Y12	Z12	X13	Y13	Z13	X14	Y14	Z14	X15	Y15	Z15	X16	Y16	Z16	X17	Y17	Z17	X18	Y18	Z18	X19	Y19	Z19	X20	Y20	Z20	X21	Y21	Z21	X22	Y22	Z22	X23	Y23	Z23	X24	Y24	Z24

240	0.956	0.18280575	-0.010097187	0.0031933502	0.47177286	0.10993922	0.10563108	0.041013986	0.035383278	-0.04679119	0.32936038	0.14132988	0.13263605	0.057254585	0.055502237	0.050566332	0.34977044	0.17097898	0.038655552	-0.036586472	0.0097753857	-0.0044661617	0.25988464	0.12223371	0.082629039	0.17360151	0.4305847	-0.10092226	0.49128463	0.55524314	0.16140964	0.16419477	0.43547641	0.02316276	0.4886929	0.54473604	0.036369067	0.22081104	0.8528049	-0.16051287	0.22952648	0.86474857	0.21179501	0.31313248	0.93490593	-0.098886861	0.30585733	0.94616699	0.14079367	0.14617987	1.0021635	0.012068227	0.34956581	1.388937	-0.13027694	0.28882185	1.4008865	0.19437035	0.25417954	1.4478096	0.020587465	0.21598111	1.0435751	-0.21590115	0.12060586	1.0756938	0.25969651	0.41489569	0.85974669	-0.22676507	0.23362687	0.83328287	0.31813886
241	0.96	0.18287055	-0.010070845	0.0031249186	0.4924066	0.10933295	0.10486052	0.04098429	0.036067304	-0.046305074	0.34891068	0.13684712	0.13206906	0.057773527	0.056114859	0.050905126	0.36878406	0.16711686	0.038058616	-0.036455936	0.010789356	-0.0037875774	0.28029594	0.1158473	0.081967992	0.17401738	0.43112272	-0.10108292	0.49911392	0.55624086	0.16096005	0.16559919	0.43598062	0.022946967	0.49620226	0.54520367	0.036050424	0.22567798	0.85267032	-0.16055495	0.23637947	0.86466892	0.21185109	0.31902879	0.93442561	-0.099346558	0.31248985	0.94589408	0.14046529	0.15257024	1.0019357	0.012288315	0.35608528	1.3886885	-0.13031946	0.2956563	1.4004332	0.19443025	0.26082937	1.4474621	0.020712419	0.22320605	1.0428365	-0.21615233	0.12716788	1.0756491	0.25958028	0.42406505	0.86092784	-0.22608711	0.23817091	0.83268265	0.31890945
242	0.964	0.18294281	-0.010031536	0.0030879153	0.51296232	0.10882085	0.10422776	0.040883375	0.036786841	-0.04571774	0.36857143	0.13243277	0.13147014	0.05837097	0.05674882	0.051276668	0.38783586	0.16335103	0.037445594	-0.03630925	0.011836273	-0.0030289986	0.30088875	0.10961422	0.081137044	0.17446036	0.4316645	-0.10125409	0.50693423	0.55711752	0.16063578	0.1670801	0.43655276	0.022615256	0.50351477	0.5454356	0.035839269	0.23087116	0.8525583	-0.16043114	0.24323734	0.86449561	0.21191337	0.32495421	0.93388871	-0.09980026	0.31915576	0.94552356	0.14013751	0.15906217	1.0016844	0.012533674	0.36260808	1.3883849	-0.13036183	0.3025059	1.3999162	0.19449316	0.26747944	1.4470474	0.020867898	0.23043159	1.0420481	-0.21637771	0.13377574	1.075531	0.25950295	0.43318859	0.86206151	-0.22539677	0.24277355	0.83202394	0.31965912
243	0.968	0.18300818	-0.0099894183	0.0030735416	0.53345337	0.10840438	0.10372211	0.040756807	0.037511455	-0.045046808	0.38836853	0.12809383	0.13081872	0.059060793	0.057399774	0.051653239	0.40691203	0.15969252	0.03681022	-0.036143981	0.012916487	-0.0021885542	0.32160724	0.10356078	0.080180833	0.17496086	0.43221161	-0.10145384	0.51481531	0.55790212	0.16047633	0.16858648	0.4371515	0.022222364	0.51065106	0.54544149	0.03575147	0.23622263	0.85241626	-0.16022876	0.25010573	0.86423355	0.2119808	0.330911	0.93328658	-0.10024321	0.32585292	0.94504787	0.13981106	0.1655853	1.0013901	0.012785247	0.36914692	1.388013	-0.13038614	0.30936764	1.3993316	0.19455936	0.27413412	1.4465697	0.021041517	0.23764909	1.041209	-0.21657444	0.14042919	1.0753472	0.25946283	0.44226888	0.86314327	-0.22469953	0.24741544	0.8312997	0.32037266
244	0.972	0.18306015	-0.0099662566	0.0030629379	0.55389272	0.10807979	0.10331702	0.040658584	0.038218503	-0.044323814	0.408242	0.1238861	0.13009846	0.059826276	0.058069331	0.05201972	0.42602836	0.15616537	0.036138658	-0.035962335	0.014026824	-0.0012741229	0.34237667	0.097724307	0.07915095	0.17552784	0.43276639	-0.10169677	0.5226951	0.5585452	0.16042689	0.1699554	0.43771415	0.021896347	0.51772568	0.54523709	0.035748777	0.24153907	0.85219225	-0.16005831	0.25698047	0.86388514	0.21204827	0.3368886	0.93260837	-0.10067088	0.33257966	0.94446731	0.13948441	0.17205771	1.0010128	0.013022303	0.37571086	1.3875661	-0.13038483	0.3162444	1.3986783	0.19462528	0.28082453	1.4460207	0.021201564	0.24485825	1.0403175	-0.21674339	0.14712087	1.0750992	0.25945623	0.45131084	0.86416788	-0.223998	0.25208157	0.83050662	0.3210363
245	0.976	0.18310251	-0.0099685024	0.0030432753	0.57427346	0.1078515	0.10299506	0.040605751	0.03892744	-0.043581285	0.42810171	0.11988225	0.12931071	0.060621715	0.058760678	0.052402067	0.44519308	0.15280189	0.035427106	-0.035768115	0.015164287	-0.00030004308	0.36313841	0.092139346	0.078089734	0.17612979	0.43332998	-0.10197764	0.53047435	0.55897497	0.16040689	0.17118168	0.43822393	0.021670746	0.52483722	0.54482415	0.035780864	0.24673904	0.85186731	-0.15997112	0.26385725	0.86344869	0.21211923	0.34286452	0.93184705	-0.10107561	0.33933925	0.94378935	0.13915688	0.17846706	1.0005349	0.013239001	0.38230113	1.3870449	-0.13035533	0.32313892	1.3979589	0.19469001	0.28759795	1.4453854	0.021312327	0.25206721	1.0393716	-0.21688611	0.15384137	1.0747876	0.25947878	0.46031427	0.86513186	-0.22329009	0.25675679	0.82964009	0.32164213
246	0.98	0.18314021	-0.0099853744	0.0030138855	0.59454783	0.10774687	0.10276427	0.040571073	0.039676137	-0.042817773	0.44789989	0.11611914	0.12847225	0.061405965	0.059470609	0.052832557	0.46440108	0.14962085	0.034681869	-0.035563702	0.016330916	0.00072495612	0.38388795	0.08681894	0.07701332	0.17671031	0.43389567	-0.10226136	0.53806321	0.55914205	0.16037008	0.1724188	0.43870779	0.021483018	0.53201685	0.54419091	0.035809045	0.25184982	0.85145594	-0.1599457	0.27073762	0.86292299	0.21220207	0.34882828	0.93100206	-0.10145551	0.34613472	0.94302079	0.13883087	0.1848495	0.9999646	0.013443746	0.38891105	1.3864538	-0.13030146	0.33005104	1.3971755	0.19475494	0.29446662	1.4446706	0.021342003	0.25928291	1.0383685	-0.21700267	0.16058821	1.074413	0.25952748	0.46927295	0.86603571	-0.22257221	0.26144178	0.82869804	0.32219872
247	0.984	0.18317516	-0.010004855	0.0029804175	0.61465717	0.10780587	0.10264112	0.0405326	0.040476021	-0.042021553	0.46762278	0.11260575	0.12761108	0.062169542	0.060198978	0.053303109	0.48363958	0.14661786	0.033915106	-0.035348742	0.017532582	0.0018006712	0.40465239	0.081760004	0.075920885	0.17724272	0.43445309	-0.10251249	0.54535195	0.55900613	0.16032055	0.17376968	0.43918356	0.021290189	0.53922946	0.54333259	0.035821657	0.25692894	0.85098664	-0.15993379	0.27761962	0.86230741	0.21229441	0.35479935	0.93008077	-0.10182376	0.35296421	0.94216303	0.1385087	0.19123745	0.99931638	0.013646437	0.39552693	1.3858035	-0.13024399	0.33697632	1.3963284	0.19481821	0.30138442	1.4439002	0.021287625	0.26650348	1.0373094	-0.21709434	0.16736595	1.0739722	0.25960043	0.47818245	0.86688188	-0.22184355	0.26617504	0.82769521	0.3227351
248	0.988	0.18320798	-0.010020965	0.0029489277	0.63458326	0.10805151	0.10262513	0.040496862	0.041316831	-0.041212941	0.48725034	0.1093486	0.12675758	0.062924229	0.060949367	0.053785373	0.50288324	0.14378606	0.03314693	-0.035120397	0.018770801	0.0029245976	0.42544227	0.076958018	0.074813978	0.17778544	0.43499879	-0.10273636	0.5522834	0.55855217	0.16029488	0.17528856	0.43964867	0.021101908	0.54638461	0.54226544	0.03585434	0.26201297	0.8504833	-0.15991058	0.28450089	0.86160119	0.21238799	0.36081113	0.92909529	-0.10219499	0.3598252	0.94121413	0.13818825	0.19764831	0.99859865	0.013854857	0.40213533	1.3851091	-0.13020848	0.34390853	1.395419	0.19487736	0.30827672	1.4430855	0.02122829	0.27371943	1.0361997	-0.21716452	0.17417628	1.0734608	0.25970035	0.48704381	0.86767178	-0.22110671	0.27100502	0.82665636	0.32327933
